PathFileType	4	(X/Y/Z)	3_coords_data.trc
DataRate	CameraRate	NumFrames	NumMarkers	Units	OrigDataRate	OrigDataStartFrame	OrigNumFrames
30.0	30.0	6	21	m	30.0	22	63
Frame#	Time	THUMB_TIP	THUMB_IP	THUMB_MCP	THUMB_CMC	INDEX_TIP	INDEX_DIP	INDEX_PIP	INDEX_MCP	MIDDLE_TIP	MIDDLE_DIP	MIDDLE_PIP	MIDDLE_MCP	RING_TIP	RING_DIP	RING_PIP	RING_MCP	PINKY_TIP	PINKY_DIP	PINKY_PIP	PINKY_MCP	WRIST
X1	Y1	Z1	X2	Y2	Z2	X3	Y3	Z3	X4	Y4	Z4	X5	Y5	Z5	X6	Y6	Z6	X7	Y7	Z7	X8	Y8	Z8	X9	Y9	Z9	X10	Y10	Z10	X11	Y11	Z11	X12	Y12	Z12	X13	Y13	Z13	X14	Y14	Z14	X15	Y15	Z15	X16	Y16	Z16	X17	Y17	Z17	X18	Y18	Z18	X19	Y19	Z19	X20	Y20	Z20	X21	Y21	Z21
20	0.6999999999999968	0.5418436569605548	-0.02282259102110673	-0.12001978151045162	0.5209461189151342	-0.018790783254326482	-0.12868219628763294	0.49345017509899125	-0.012904732172788203	-0.11533500645887024	0.4719109361391105	-0.02656088976347004	-0.07873636516048832	0.562968168223196	0.043298254226821764	-0.16973164934966573	0.5500902578664326	0.038944340063338245	-0.15776490976445767	0.5330796378439089	0.03369614183987224	-0.14001371107657967	0.505662309067516	0.02034002327111961	-0.11028930572433415	0.5216693875189312	-0.013687593413574617	-0.12096786354962813	0.5363235304195728	-0.009167466016962722	-0.1306024130547151	0.5470076830475349	0.017091562006566252	-0.12384061744393715	0.5184664321105121	0.022333836712797317	-0.08986910773573742	0.5400059949641167	-0.01980230631811597	-0.1138172713924629	0.5550165705126805	-0.01001484293465571	-0.11578911880498838	0.5624687298281242	0.010701010372687891	-0.10414872696081628	0.5305195305362078	0.008637037779123613	-0.07945643027260929	0.6021232163128949	0.010486139993610033	-0.08273227005643835	0.58613106158772	0.006245013287661028	-0.07834321189891191	0.5661858968085907	0.0016762964030591077	-0.0736390385430783	0.5330922645021061	-0.01220812740259214	-0.07004491454017159	0.4622830810018609	-0.023011742144276925	-0.051989820119430985
21	0.7333333333333302	0.5417602199645482	-0.023075226571812935	-0.12009868974284987	0.5208573389967742	-0.01904232993275623	-0.12874769615663872	0.4933729812680684	-0.013088217566556981	-0.11540683313466027	0.471886970090312	-0.026632459294864574	-0.07873538866250318	0.5629271111694023	0.04229100658839324	-0.17021406232812886	0.5500552155761392	0.0381117823780005	-0.15817876470674025	0.5330569860436462	0.033099650002092806	-0.14034765271654004	0.5056283901254943	0.020153368475805955	-0.11045280341769143	0.52158217347609	-0.013890939489168197	-0.12102143265906318	0.5362548859573222	-0.00946579383576207	-0.13067180023699704	0.5469942367889417	0.01680131774168614	-0.12402990720162815	0.5184684122056007	0.02216723016946953	-0.09006474509899975	0.5399153139074456	-0.02002545831744973	-0.11384770224654228	0.5549596162764724	-0.01029326308662104	-0.1158360035864644	0.5625132596615058	0.010416524137188965	-0.1042503588587742	0.5305322038500111	0.008495095820187926	-0.079587816078179	0.6021200360420575	0.010357627604471897	-0.08287278334946313	0.5861310959552475	0.0061143988269380944	-0.07847405575595312	0.5661799962514896	0.0015720337480111812	-0.07376953037070388	0.5330848076783827	-0.012295861306970801	-0.07012625834483122	0.4622830810018609	-0.023011742144276925	-0.051989820119430985
22	0.7666666666666633	0.5417160075213081	-0.02334873318380304	-0.12016823990522596	0.5208127296901314	-0.019310498048719205	-0.12881379557888917	0.4933415736832729	-0.013317106020414804	-0.11546333342801585	0.4718637398544958	-0.026713078806903212	-0.07873268454827098	0.5629171367857132	0.04129204194319336	-0.1706541426467964	0.5500493790887622	0.03727579090084132	-0.1585590800418588	0.533061629329067	0.03248995900708174	-0.1406559517066585	0.5056057572402438	0.019968474635007727	-0.11060560044478318	0.521511492541118	-0.014158495460317444	-0.12107381153934776	0.5362013567304256	-0.009799571157824594	-0.13072822343364954	0.5470124096935515	0.016465161795649275	-0.12419412160469151	0.5184885324110164	0.021983799640383883	-0.09025180314956005	0.5398569518667864	-0.020281642500989294	-0.11393234046716005	0.5549460243769169	-0.010615350770824872	-0.11590279599098802	0.5625772133710605	0.010089791947400895	-0.1043597461966933	0.5305477680305176	0.008319517388181263	-0.07974874066741477	0.6021246166997777	0.010184024420665017	-0.08299509465106403	0.5861248046715455	0.00597535603367183	-0.07860270060344521	0.5661785130342912	0.001444988897404742	-0.07386632619550026	0.5330820571417059	-0.012415714680196532	-0.07020723413816898	0.4622830810018608	-0.023011742144276925	-0.051989820119430985
23	0.7999999999999965	0.541678579549612	-0.023613839977236206	-0.12023933072703274	0.5207634475485077	-0.01961077476477935	-0.12887256432060623	0.4933188163224017	-0.013539111984165353	-0.11550292977281285	0.47184713579451765	-0.02681343380546275	-0.07872454868428325	0.5629154318216034	0.040322410874932824	-0.17108756830926597	0.5500527561088566	0.03643499091832281	-0.15894509987860234	0.5330727035022386	0.03184814815250048	-0.14098268022204968	0.5055985361525919	0.01973300934358424	-0.11078285184365816	0.5214563141902503	-0.014433076499080766	-0.12113874024551113	0.5361567582995153	-0.010151706726787557	-0.1308117343974411	0.547044217569437	0.016106891652054922	-0.12438065425298311	0.5185227333179749	0.021763782306647106	-0.09045909112249645	0.5398024902793356	-0.020556389993821478	-0.11399164474886547	0.5549202674741818	-0.010937853805205622	-0.11597572495774772	0.562642410438031	0.00974891357703811	-0.10446025091979277	0.5305714415626658	0.008139905967567862	-0.07989228633360801	0.6021359614653635	0.01000820544909753	-0.08316062989089434	0.5861293395029115	0.005819424846431942	-0.07877404005209276	0.5661913542709007	0.0012758547005154997	-0.07401539169176374	0.5330940104021284	-0.012551245822066348	-0.0702390745744309	0.4622830810018608	-0.023011742144276925	-0.051989820119430985
24	0.8333333333333297	0.5416382071001328	-0.023873616272918508	-0.12030411734403784	0.5207200367753042	-0.019895218007101145	-0.12894139107479385	0.49330782323102607	-0.01375821116196474	-0.11553513523710224	0.4718250128898692	-0.02690859973073101	-0.07871875110807136	0.5629246293705056	0.039496803581303475	-0.17144106133389692	0.5500600879815263	0.0356979762863856	-0.1592725574803155	0.5330796585530424	0.0312631020918982	-0.1412723702506407	0.5055885516255793	0.01952950212226645	-0.11093760857932616	0.521410354858436	-0.014725983306316137	-0.12109138136370662	0.5360808072205523	-0.010442825195349892	-0.1308090140017179	0.5470680358975077	0.015802797718719397	-0.12449572374601364	0.5185509240799197	0.021610313688876892	-0.09059594479629857	0.5398245984276439	-0.02074135018341461	-0.11400908527403358	0.554993018796214	-0.011211381318067426	-0.1160336140952305	0.5627400480804148	0.009465606670496785	-0.10451729159234313	0.5306181795775851	0.007929964166950687	-0.08001120663394501	0.6021624457079204	0.009817227585531052	-0.08317711261105976	0.5861561825705631	0.0056184832615362446	-0.07879874687948873	0.5662135538960772	0.00106062130871587	-0.07407333949275441	0.5330879258896289	-0.01271438881303022	-0.07035509846718702	0.4622830810018608	-0.023011742144276925	-0.051989820119430985
25	0.8666666666666629	0.541574552083084	-0.02411778031414935	-0.12019513088291994	0.5206987771493458	-0.020165805406879067	-0.12894635452582903	0.4932959798214742	-0.01393848531416264	-0.11556251415505175	0.4718104478454398	-0.026988816526393178	-0.07871213056196169	0.5630373459945885	0.03887738616366987	-0.17159015132517424	0.5501258724113625	0.03515761268921702	-0.1594469583674547	0.5330880218713797	0.030822684241895937	-0.14147670858249578	0.5055606416193611	0.019385444793755813	-0.1110617618577901	0.5213078085013376	-0.014907358292771344	-0.12098406761115954	0.535955326582444	-0.01066813353604179	-0.13075541283715553	0.5470586577572236	0.015557037461921275	-0.12456138402298583	0.51857105009344	0.021525295975097114	-0.09066471721171615	0.5397167849710635	-0.020849179118964667	-0.11387092714789737	0.5549243174012647	-0.011405265202719339	-0.11600246352500376	0.5628122796399226	0.00924746015104183	-0.1045383906805204	0.530661582844516	0.007784340351451591	-0.08006569548726716	0.6022074267622248	0.009681608501074468	-0.08306026636590369	0.5861878562446797	0.005502106799292306	-0.07871226384081287	0.5662124369244264	0.0009560933841316066	-0.07411569947063112	0.5330956798548406	-0.012839541642640229	-0.07039490568406437	0.4622830810018608	-0.023011742144276925	-0.051989820119430985
